<svg xmlns="http://www.w3.org/2000/svg" viewBox="0 0 64 64">
  <rect width="64" height="64" rx="14" fill="#07233a"/>
  <circle cx="32" cy="29" r="5" fill="#5fd3bd"/>
  <path d="M32 23c0-9 3-15 8-18 5-2 9 2 9 7 0 7-7 11-17 11Z" fill="#5fd3bd" opacity=".9"/>
  <path d="M26 32C18 37 10 38 6 34c-4-4-1-10 4-13 7-4 14 1 16 11Z" fill="#5fd3bd" opacity=".7"/>
  <path d="M38 32c8 5 12 12 10 17-2 5-9 6-14 3-6-4-6-13-2-20Z" fill="#5fd3bd" opacity=".5"/>
  <path d="M6 57c5 0 5-4 10-4s5 4 10 4 5-4 10-4 5 4 10 4 5-4 12-4" fill="none" stroke="#eef4f9" stroke-width="3" stroke-linecap="round" opacity=".75"/>
</svg>
